<?xml version="1.0" encoding="UTF-8" standalone="no"?>
<!DOCTYPE svg PUBLIC "-//W3C//DTD SVG 1.0//EN"
 "http://www.w3.org/TR/2001/REC-SVG-20010904/DTD/svg10.dtd" [
 <!ATTLIST svg xmlns:xlink CDATA #FIXED "http://www.w3.org/1999/xlink">
]>
<!-- Generated by dot version 1.10 (Tue Dec 9 20:37:01 UTC+0200 2003)
     For user: Bill Gates   Title: G    Pages: 1 -->
<svg width="1317px" height="1007px"
 viewBox = "-1 -1 987 755"
 xmlns="http://www.w3.org/2000/svg" xmlns:xlink="http://www.w3.org/1999/xlink">
<g id="graph0" class="graph" style="font-family:Times-Roman;font-size:14.00;">
<title>G</title>
<g id="node1" class="node"><title>452</title>
<a xlink:href="uri:452" xlink:title="ccnet\n0.0.0.0">
<polygon style="fill:#87cefa;stroke:black;" points="227,77 173,77 173,113 227,113 227,77"/>
<text text-anchor="middle" x="200" y="94" style="font-family:Tahoma;font-size:8.25;">ccnet</text>
<text text-anchor="middle" x="200" y="103" style="font-family:Tahoma;font-size:8.25;">0.0.0.0</text>
</a></g>
<g id="node3" class="node"><title>454</title>
<a xlink:href="uri:454" xlink:title="nmock\n1.0.1721.15437">
<polygon style="fill:#87cefa;stroke:black;" points="679,4 625,4 625,40 679,40 679,4"/>
<text text-anchor="middle" x="652" y="21" style="font-family:Tahoma;font-size:8.25;">nmock</text>
<text text-anchor="middle" x="652" y="30" style="font-family:Tahoma;font-size:8.25;">1.0.1721.15437</text>
</a></g>
<g id="edge8" class="edge"><title>452-&gt;454</title>
<path style="fill:none;stroke:black;" d="M227,91C254,86 296,79 333,73 435,57 555,37 614,28"/>
<polygon style="fill:black;stroke:black;" points="614,25 624,26 615,31 614,25"/>
</g>
<g id="node4" class="node"><title>455</title>
<a xlink:href="uri:455" xlink:title="ThoughtWorks.CruiseControl.Core\n0.0.0.0">
<polygon style="fill:#87cefa;stroke:black;" points="508,100 360,100 360,136 508,136 508,100"/>
<text text-anchor="middle" x="434" y="117" style="font-family:Tahoma;font-size:8.25;">ThoughtWorks.CruiseControl.Core</text>
<text text-anchor="middle" x="434" y="126" style="font-family:Tahoma;font-size:8.25;">0.0.0.0</text>
</a></g>
<g id="edge2" class="edge"><title>452-&gt;455</title>
<path style="fill:none;stroke:black;" d="M227,98C257,101 307,105 350,110"/>
<polygon style="fill:black;stroke:black;" points="350,107 360,111 350,113 350,107"/>
</g>
<g id="node5" class="node"><title>456</title>
<a xlink:href="uri:456" xlink:title="ThoughtWorks.CruiseControl.Remote\n0.0.0.0">
<polygon style="fill:#90ee90;stroke:black;" points="732,249 572,249 572,285 732,285 732,249"/>
<text text-anchor="middle" x="652" y="266" style="font-family:Tahoma;font-size:8.25;">ThoughtWorks.CruiseControl.Remote</text>
<text text-anchor="middle" x="652" y="275" style="font-family:Tahoma;font-size:8.25;">0.0.0.0</text>
</a></g>
<g id="edge4" class="edge"><title>452-&gt;456</title>
<path style="fill:none;stroke:black;" d="M227,106C289,131 447,193 580,242 583,243 586,244 589,245"/>
<polygon style="fill:black;stroke:black;" points="591,242 599,249 588,249 591,242"/>
</g>
<g id="node16" class="node"><title>467</title>
<a xlink:href="uri:467" xlink:title="nunit.framework\n2.2.0.0">
<ellipse cx="652" cy="76" rx="43" ry="18" style="fill:#d3d3d3;stroke:black;"/>
<text text-anchor="middle" x="652" y="75" style="font-family:Tahoma;font-size:8.25;">nunit.framework</text>
<text text-anchor="middle" x="652" y="84" style="font-family:Tahoma;font-size:8.25;">2.2.0.0</text>
</a></g>
<g id="edge6" class="edge"><title>452-&gt;467</title>
<path style="fill:none;stroke:black;" d="M227,94C300,91 501,83 598,78"/>
<polygon style="fill:black;stroke:black;" points="598,74 608,78 598,81 598,74"/>
</g>
<g id="node2" class="node"><title>453</title>
<a xlink:href="uri:453" xlink:title="NetReflector\n1.2.1.1">
<polygon style="fill:#87cefa;stroke:black;" points="830,249 770,249 770,285 830,285 830,249"/>
<text text-anchor="middle" x="800" y="266" style="font-family:Tahoma;font-size:8.25;">NetReflector</text>
<text text-anchor="middle" x="800" y="275" style="font-family:Tahoma;font-size:8.25;">1.2.1.1</text>
</a></g>
<g id="node17" class="node"><title>468</title>
<a xlink:href="uri:468" xlink:title="System.Xml\n1.0.5000.0">
<ellipse cx="920" cy="316" rx="32" ry="18" style="fill:#d3d3d3;stroke:black;"/>
<text text-anchor="middle" x="920" y="315" style="font-family:Tahoma;font-size:8.25;">System.Xml</text>
<text text-anchor="middle" x="920" y="324" style="font-family:Tahoma;font-size:8.25;">1.0.5000.0</text>
</a></g>
<g id="edge10" class="edge"><title>453-&gt;468</title>
<path style="fill:none;stroke:black;" d="M831,279C847,286 867,294 885,301"/>
<polygon style="fill:black;stroke:black;" points="886,298 894,305 883,304 886,298"/>
</g>
<g id="edge18" class="edge"><title>455-&gt;453</title>
<path style="fill:none;stroke:black;" d="M508,127C584,137 697,156 733,179 756,194 775,220 786,240"/>
<polygon style="fill:black;stroke:black;" points="789,239 791,249 783,242 789,239"/>
</g>
<g id="edge16" class="edge"><title>455-&gt;454</title>
<path style="fill:none;stroke:black;" d="M467,100C495,85 535,65 571,49 585,43 601,38 614,33"/>
<polygon style="fill:black;stroke:black;" points="613,30 624,30 615,36 613,30"/>
</g>
<g id="edge12" class="edge"><title>455-&gt;456</title>
<path style="fill:none;stroke:black;" d="M465,136C486,149 514,168 535,188 554,206 551,218 571,233 576,237 583,241 589,244"/>
<polygon style="fill:black;stroke:black;" points="591,241 598,249 588,247 591,241"/>
</g>
<g id="edge20" class="edge"><title>455-&gt;467</title>
<path style="fill:none;stroke:black;" d="M508,104C539,98 574,91 603,86"/>
<polygon style="fill:black;stroke:black;" points="603,83 613,84 604,89 603,83"/>
</g>
<g id="edge14" class="edge"><title>455-&gt;468</title>
<path style="fill:none;stroke:black;" d="M508,112C571,110 661,113 733,144 828,185 851,212 906,290"/>
<polygon style="fill:black;stroke:black;" points="909,288 912,298 903,292 909,288"/>
</g>
<g id="node18" class="node"><title>469</title>
<a xlink:href="uri:469" xlink:title="System.Web\n1.0.5000.0">
<ellipse cx="652" cy="206" rx="33" ry="18" style="fill:#d3d3d3;stroke:black;"/>
<text text-anchor="middle" x="652" y="205" style="font-family:Tahoma;font-size:8.25;">System.Web</text>
<text text-anchor="middle" x="652" y="214" style="font-family:Tahoma;font-size:8.25;">1.0.5000.0</text>
</a></g>
<g id="edge22" class="edge"><title>455-&gt;469</title>
<path style="fill:none;stroke:black;" d="M500,136C512,140 524,145 535,150 553,159 554,166 571,174 585,181 600,188 614,193"/>
<polygon style="fill:black;stroke:black;" points="615,190 624,196 613,196 615,190"/>
</g>
<g id="edge24" class="edge"><title>456-&gt;453</title>
<path style="fill:none;stroke:black;" d="M733,267C742,267 751,267 759,267"/>
<polygon style="fill:black;stroke:black;" points="759,263 769,267 759,270 759,263"/>
</g>
<g id="node6" class="node"><title>457</title>
<a xlink:href="uri:457" xlink:title="AgentServerObjects\n2.0.0.0">
<polygon style="fill:#87cefa;stroke:black;" points="696,712 608,712 608,748 696,748 696,712"/>
<text text-anchor="middle" x="652" y="729" style="font-family:Tahoma;font-size:8.25;">AgentServerObjects</text>
<text text-anchor="middle" x="652" y="738" style="font-family:Tahoma;font-size:8.25;">2.0.0.0</text>
</a></g>
<g id="node7" class="node"><title>458</title>
<a xlink:href="uri:458" xlink:title="cctray\n0.0.0.0">
<polygon style="fill:#87cefa;stroke:black;" points="67,459 13,459 13,495 67,495 67,459"/>
<text text-anchor="middle" x="40" y="476" style="font-family:Tahoma;font-size:8.25;">cctray</text>
<text text-anchor="middle" x="40" y="485" style="font-family:Tahoma;font-size:8.25;">0.0.0.0</text>
</a></g>
<g id="edge34" class="edge"><title>458-&gt;456</title>
<path style="fill:none;stroke:black;" d="M43,459C51,413 73,297 103,274 173,222 424,241 561,256"/>
<polygon style="fill:black;stroke:black;" points="561,253 571,257 561,259 561,253"/>
</g>
<g id="node8" class="node"><title>459</title>
<a xlink:href="uri:459" xlink:title="Drew.Agents\n1.0.1362.30211">
<polygon style="fill:#87cefa;stroke:black;" points="464,636 404,636 404,672 464,672 464,636"/>
<text text-anchor="middle" x="434" y="653" style="font-family:Tahoma;font-size:8.25;">Drew.Agents</text>
<text text-anchor="middle" x="434" y="662" style="font-family:Tahoma;font-size:8.25;">1.0.1362.30211</text>
</a></g>
<g id="edge32" class="edge"><title>458-&gt;459</title>
<path style="fill:none;stroke:black;" d="M45,495C62,534 68,550 103,575 193,638 327,651 393,654"/>
<polygon style="fill:black;stroke:black;" points="393,650 403,654 393,657 393,650"/>
</g>
<g id="node9" class="node"><title>460</title>
<a xlink:href="uri:460" xlink:title="ThoughtWorks.CruiseControl.CCTrayLib\n0.0.0.0">
<polygon style="fill:#87cefa;stroke:black;" points="288,459 112,459 112,495 288,495 288,459"/>
<text text-anchor="middle" x="200" y="476" style="font-family:Tahoma;font-size:8.25;">ThoughtWorks.CruiseControl.CCTrayLib</text>
<text text-anchor="middle" x="200" y="485" style="font-family:Tahoma;font-size:8.25;">0.0.0.0</text>
</a></g>
<g id="edge28" class="edge"><title>458-&gt;460</title>
<path style="fill:none;stroke:black;" d="M67,477C77,477 89,477 102,477"/>
<polygon style="fill:black;stroke:black;" points="102,473 112,477 102,480 102,473"/>
</g>
<g id="node19" class="node"><title>470</title>
<a xlink:href="uri:470" xlink:title="System.Windows.Forms\n1.0.5000.0">
<ellipse cx="434" cy="600" rx="56" ry="18" style="fill:#d3d3d3;stroke:black;"/>
<text text-anchor="middle" x="434" y="599" style="font-family:Tahoma;font-size:8.25;">System.Windows.Forms</text>
<text text-anchor="middle" x="434" y="608" style="font-family:Tahoma;font-size:8.25;">1.0.5000.0</text>
</a></g>
<g id="edge26" class="edge"><title>458-&gt;470</title>
<path style="fill:none;stroke:black;" d="M67,490C78,494 91,500 103,504 214,546 243,554 355,587 360,589 362,589 366,590 368,590 370,591 372,591"/>
<polygon style="fill:black;stroke:black;" points="373,588 382,593 372,594 373,588"/>
</g>
<g id="node20" class="node"><title>471</title>
<a xlink:href="uri:471" xlink:title="System.Drawing\n1.0.5000.0">
<ellipse cx="434" cy="362" rx="41" ry="18" style="fill:#d3d3d3;stroke:black;"/>
<text text-anchor="middle" x="434" y="361" style="font-family:Tahoma;font-size:8.25;">System.Drawing</text>
<text text-anchor="middle" x="434" y="370" style="font-family:Tahoma;font-size:8.25;">1.0.5000.0</text>
</a></g>
<g id="edge30" class="edge"><title>458-&gt;471</title>
<path style="fill:none;stroke:black;" d="M67,465C78,460 91,455 103,450 223,409 255,404 377,374 380,374 383,373 386,372"/>
<polygon style="fill:black;stroke:black;" points="386,369 396,370 387,375 386,369"/>
</g>
<g id="edge36" class="edge"><title>459-&gt;457</title>
<path style="fill:none;stroke:black;" d="M465,665C499,677 556,697 597,712"/>
<polygon style="fill:black;stroke:black;" points="598,709 607,715 596,715 598,709"/>
</g>
<g id="edge40" class="edge"><title>460-&gt;456</title>
<path style="fill:none;stroke:black;" d="M243,459C269,449 303,436 333,427 421,403 456,434 535,389 559,376 597,318 616,299 618,296 621,294 623,292"/>
<polygon style="fill:black;stroke:black;" points="621,289 631,285 626,294 621,289"/>
</g>
<g id="edge44" class="edge"><title>460-&gt;459</title>
<path style="fill:none;stroke:black;" d="M214,495C242,531 305,609 333,627 352,638 374,645 393,649"/>
<polygon style="fill:black;stroke:black;" points="394,646 403,651 393,652 394,646"/>
</g>
<g id="node10" class="node"><title>461</title>
<a xlink:href="uri:461" xlink:title="ThoughtWorks.CruiseControl.WebServiceProxy\n0.0.0.0">
<polygon style="fill:#87cefa;stroke:black;" points="535,436 333,436 333,472 535,472 535,436"/>
<text text-anchor="middle" x="434" y="453" style="font-family:Tahoma;font-size:8.25;">ThoughtWorks.CruiseControl.WebServiceProxy</text>
<text text-anchor="middle" x="434" y="462" style="font-family:Tahoma;font-size:8.25;">0.0.0.0</text>
</a></g>
<g id="edge48" class="edge"><title>460-&gt;461</title>
<path style="fill:none;stroke:black;" d="M288,468C300,467 311,466 323,465"/>
<polygon style="fill:black;stroke:black;" points="323,462 333,464 323,468 323,462"/>
</g>
<g id="edge46" class="edge"><title>460-&gt;468</title>
<path style="fill:none;stroke:black;" d="M282,495C390,515 582,537 733,481 827,447 847,414 904,341"/>
<polygon style="fill:black;stroke:black;" points="901,339 910,333 907,343 901,339"/>
</g>
<g id="edge38" class="edge"><title>460-&gt;470</title>
<path style="fill:none;stroke:black;" d="M246,495C263,503 282,514 297,526 318,543 312,559 333,573 345,581 358,587 372,590"/>
<polygon style="fill:black;stroke:black;" points="373,587 382,593 371,593 373,587"/>
</g>
<g id="edge42" class="edge"><title>460-&gt;471</title>
<path style="fill:none;stroke:black;" d="M235,459C254,449 277,435 297,422 314,411 316,404 333,394 350,386 370,379 387,374"/>
<polygon style="fill:black;stroke:black;" points="386,371 397,371 388,377 386,371"/>
</g>
<g id="edge52" class="edge"><title>461-&gt;456</title>
<path style="fill:none;stroke:black;" d="M511,436C520,432 528,428 535,422 559,405 554,391 571,367 590,342 614,313 630,293"/>
<polygon style="fill:black;stroke:black;" points="628,290 637,285 633,295 628,290"/>
</g>
<g id="edge54" class="edge"><title>461-&gt;468</title>
<path style="fill:none;stroke:black;" d="M513,436C517,435 520,434 523,433 655,396 811,349 881,328"/>
<polygon style="fill:black;stroke:black;" points="880,325 891,325 882,331 880,325"/>
</g>
<g id="node21" class="node"><title>472</title>
<a xlink:href="uri:472" xlink:title="System.Web.Services\n1.0.5000.0">
<ellipse cx="652" cy="454" rx="50" ry="18" style="fill:#d3d3d3;stroke:black;"/>
<text text-anchor="middle" x="652" y="453" style="font-family:Tahoma;font-size:8.25;">System.Web.Services</text>
<text text-anchor="middle" x="652" y="462" style="font-family:Tahoma;font-size:8.25;">1.0.5000.0</text>
</a></g>
<g id="edge50" class="edge"><title>461-&gt;472</title>
<path style="fill:none;stroke:black;" d="M535,454C554,454 574,454 592,454"/>
<polygon style="fill:black;stroke:black;" points="592,450 602,454 592,457 592,450"/>
</g>
<g id="node11" class="node"><title>462</title>
<a xlink:href="uri:462" xlink:title="Commons\n1.0.1106.21941">
<polygon style="fill:#87cefa;stroke:black;" points="679,566 625,566 625,602 679,602 679,566"/>
<text text-anchor="middle" x="652" y="583" style="font-family:Tahoma;font-size:8.25;">Commons</text>
<text text-anchor="middle" x="652" y="592" style="font-family:Tahoma;font-size:8.25;">1.0.1106.21941</text>
</a></g>
<g id="node12" class="node"><title>463</title>
<a xlink:href="uri:463" xlink:title="log4net\n1.2.0.33710">
<polygon style="fill:#87cefa;stroke:black;" points="827,566 773,566 773,602 827,602 827,566"/>
<text text-anchor="middle" x="800" y="583" style="font-family:Tahoma;font-size:8.25;">log4net</text>
<text text-anchor="middle" x="800" y="592" style="font-family:Tahoma;font-size:8.25;">1.2.0.33710</text>
</a></g>
<g id="edge56" class="edge"><title>462-&gt;463</title>
<path style="fill:none;stroke:black;" d="M679,584C703,584 737,584 763,584"/>
<polygon style="fill:black;stroke:black;" points="763,580 773,584 763,587 763,580"/>
</g>
<g id="node22" class="node"><title>473</title>
<a xlink:href="uri:473" xlink:title="System.Data\n1.0.3300.0">
<ellipse cx="920" cy="538" rx="33" ry="18" style="fill:#d3d3d3;stroke:black;"/>
<text text-anchor="middle" x="920" y="537" style="font-family:Tahoma;font-size:8.25;">System.Data</text>
<text text-anchor="middle" x="920" y="546" style="font-family:Tahoma;font-size:8.25;">1.0.3300.0</text>
</a></g>
<g id="edge58" class="edge"><title>463-&gt;473</title>
<path style="fill:none;stroke:black;" d="M827,574C844,567 865,559 883,552"/>
<polygon style="fill:black;stroke:black;" points="882,548 893,548 885,555 882,548"/>
</g>
<g id="node23" class="node"><title>474</title>
<a xlink:href="uri:474" xlink:title="System.Xml\n1.0.3300.0">
<ellipse cx="920" cy="646" rx="32" ry="18" style="fill:#d3d3d3;stroke:black;"/>
<text text-anchor="middle" x="920" y="645" style="font-family:Tahoma;font-size:8.25;">System.Xml</text>
<text text-anchor="middle" x="920" y="654" style="font-family:Tahoma;font-size:8.25;">1.0.3300.0</text>
</a></g>
<g id="edge60" class="edge"><title>463-&gt;474</title>
<path style="fill:none;stroke:black;" d="M827,598C839,605 854,612 867,619 873,622 880,626 887,629"/>
<polygon style="fill:black;stroke:black;" points="889,626 896,634 886,632 889,626"/>
</g>
<g id="node24" class="node"><title>475</title>
<a xlink:href="uri:475" xlink:title="System.Web\n1.0.3300.0">
<ellipse cx="920" cy="592" rx="33" ry="18" style="fill:#d3d3d3;stroke:black;"/>
<text text-anchor="middle" x="920" y="591" style="font-family:Tahoma;font-size:8.25;">System.Web</text>
<text text-anchor="middle" x="920" y="600" style="font-family:Tahoma;font-size:8.25;">1.0.3300.0</text>
</a></g>
<g id="edge62" class="edge"><title>463-&gt;475</title>
<path style="fill:none;stroke:black;" d="M827,586C842,587 860,588 877,589"/>
<polygon style="fill:black;stroke:black;" points="877,586 887,590 877,592 877,586"/>
</g>
<g id="node13" class="node"><title>464</title>
<a xlink:href="uri:464" xlink:title="NVelocity\n1.0.1106.21942">
<polygon style="fill:#87cefa;stroke:black;" points="462,528 406,528 406,564 462,564 462,528"/>
<text text-anchor="middle" x="434" y="545" style="font-family:Tahoma;font-size:8.25;">NVelocity</text>
<text text-anchor="middle" x="434" y="554" style="font-family:Tahoma;font-size:8.25;">1.0.1106.21942</text>
</a></g>
<g id="edge64" class="edge"><title>464-&gt;462</title>
<path style="fill:none;stroke:black;" d="M462,551C501,557 571,570 615,577"/>
<polygon style="fill:black;stroke:black;" points="616,574 625,579 615,580 616,574"/>
</g>
<g id="edge68" class="edge"><title>464-&gt;463</title>
<path style="fill:none;stroke:black;" d="M462,556C490,562 506,557 535,574 555,586 550,603 571,611 638,640 663,625 733,611 743,609 754,605 764,602"/>
<polygon style="fill:black;stroke:black;" points="762,599 773,598 765,605 762,599"/>
</g>
<g id="edge70" class="edge"><title>464-&gt;473</title>
<path style="fill:none;stroke:black;" d="M462,546C544,544 780,540 877,539"/>
<polygon style="fill:black;stroke:black;" points="877,535 887,539 877,542 877,535"/>
</g>
<g id="edge66" class="edge"><title>464-&gt;474</title>
<path style="fill:none;stroke:black;" d="M462,562C489,569 508,556 535,575 542,580 565,630 571,634 646,683 681,659 769,665 797,667 804,667 831,665 847,663 865,660 880,656"/>
<polygon style="fill:black;stroke:black;" points="880,653 890,654 881,659 880,653"/>
</g>
<g id="node14" class="node"><title>465</title>
<a xlink:href="uri:465" xlink:title="SiteMesh\n1.0.1569.36065">
<polygon style="fill:#87cefa;stroke:black;" points="829,620 771,620 771,656 829,656 829,620"/>
<text text-anchor="middle" x="800" y="637" style="font-family:Tahoma;font-size:8.25;">SiteMesh</text>
<text text-anchor="middle" x="800" y="646" style="font-family:Tahoma;font-size:8.25;">1.0.1569.36065</text>
</a></g>
<g id="edge74" class="edge"><title>465-&gt;473</title>
<path style="fill:none;stroke:black;" d="M822,620C825,617 828,614 831,611 849,593 847,582 867,565 872,561 879,557 885,554"/>
<polygon style="fill:black;stroke:black;" points="884,551 894,549 887,557 884,551"/>
</g>
<g id="edge78" class="edge"><title>465-&gt;474</title>
<path style="fill:none;stroke:black;" d="M829,640C844,641 862,642 878,643"/>
<polygon style="fill:black;stroke:black;" points="878,640 888,644 878,646 878,640"/>
</g>
<g id="edge76" class="edge"><title>465-&gt;475</title>
<path style="fill:none;stroke:black;" d="M829,627C846,620 866,613 884,606"/>
<polygon style="fill:black;stroke:black;" points="882,603 893,602 885,609 882,603"/>
</g>
<g id="node25" class="node"><title>476</title>
<a xlink:href="uri:476" xlink:title="Microsoft.VisualBasic\n7.0.3300.0">
<ellipse cx="920" cy="700" rx="52" ry="18" style="fill:#d3d3d3;stroke:black;"/>
<text text-anchor="middle" x="920" y="699" style="font-family:Tahoma;font-size:8.25;">Microsoft.VisualBasic</text>
<text text-anchor="middle" x="920" y="708" style="font-family:Tahoma;font-size:8.25;">7.0.3300.0</text>
</a></g>
<g id="edge72" class="edge"><title>465-&gt;476</title>
<path style="fill:none;stroke:black;" d="M829,653C841,659 855,667 867,673 872,676 877,678 882,681"/>
<polygon style="fill:black;stroke:black;" points="883,678 891,685 880,684 883,678"/>
</g>
<g id="node15" class="node"><title>466</title>
<a xlink:href="uri:466" xlink:title="ThoughtWorks.CruiseControl.WebDashboard\n0.0.0.0">
<polygon style="fill:#87cefa;stroke:black;" points="296,283 104,283 104,319 296,319 296,283"/>
<text text-anchor="middle" x="200" y="300" style="font-family:Tahoma;font-size:8.25;">ThoughtWorks.CruiseControl.WebDashboard</text>
<text text-anchor="middle" x="200" y="309" style="font-family:Tahoma;font-size:8.25;">0.0.0.0</text>
</a></g>
<g id="edge82" class="edge"><title>466-&gt;455</title>
<path style="fill:none;stroke:black;" d="M211,283C232,251 278,186 333,150 339,147 346,143 352,140"/>
<polygon style="fill:black;stroke:black;" points="350,137 361,136 353,143 350,137"/>
</g>
<g id="edge84" class="edge"><title>466-&gt;456</title>
<path style="fill:none;stroke:black;" d="M297,294C375,288 484,280 561,274"/>
<polygon style="fill:black;stroke:black;" points="561,271 571,273 561,277 561,271"/>
</g>
<g id="edge88" class="edge"><title>466-&gt;464</title>
<path style="fill:none;stroke:black;" d="M210,319C231,353 279,430 333,481 352,499 377,515 397,527"/>
<polygon style="fill:black;stroke:black;" points="399,524 406,532 396,530 399,524"/>
</g>
<g id="edge86" class="edge"><title>466-&gt;468</title>
<path style="fill:none;stroke:black;" d="M297,303C455,306 764,313 877,315"/>
<polygon style="fill:black;stroke:black;" points="877,311 887,315 877,318 877,311"/>
</g>
<g id="edge80" class="edge"><title>466-&gt;469</title>
<path style="fill:none;stroke:black;" d="M238,283C372,233 533,215 608,209"/>
<polygon style="fill:black;stroke:black;" points="608,206 618,208 608,212 608,206"/>
</g>
<g id="edge90" class="edge"><title>466-&gt;471</title>
<path style="fill:none;stroke:black;" d="M269,319C307,329 354,341 388,350"/>
<polygon style="fill:black;stroke:black;" points="389,347 398,353 387,353 389,347"/>
</g>
</g>
</svg>
